<svg width="32" height="32" viewBox="0 0 32 32" fill="none" xmlns="http://www.w3.org/2000/svg">
<path d="M10.7084 25.098C10.7084 25.227 10.5602 25.3301 10.3732 25.3301C10.1605 25.3494 10.0123 25.2463 10.0123 25.098C10.0123 24.9691 10.1605 24.866 10.3475 24.866C10.5408 24.8467 10.7084 24.9498 10.7084 25.098ZM8.70391 24.808C8.65879 24.9369 8.7877 25.0852 8.98106 25.1238C9.14863 25.1883 9.34199 25.1238 9.38066 24.9949C9.41934 24.866 9.29688 24.7178 9.10352 24.6598C8.93594 24.6146 8.74902 24.6791 8.70391 24.808ZM11.5527 24.6984C11.3658 24.7436 11.2369 24.866 11.2562 25.0143C11.2756 25.1432 11.4432 25.227 11.6365 25.1818C11.8234 25.1367 11.9523 25.0143 11.933 24.8854C11.9137 24.7629 11.7396 24.6791 11.5527 24.6984ZM15.7937 0C6.8541 0 0.015625 6.78691 0.015625 15.7266C0.015625 22.8744 4.51445 28.991 10.9404 31.1438C11.7654 31.292 12.0555 30.7828 12.0555 30.3639C12.0555 29.9643 12.0361 27.76 12.0361 26.4064C12.0361 26.4064 7.52441 27.3732 6.57695 24.4857C6.57695 24.4857 5.84219 22.6102 4.78516 22.1268C4.78516 22.1268 3.30918 21.1148 4.88828 21.1342C4.88828 21.1342 6.49316 21.2631 7.37617 22.7971C8.78769 25.285 11.1531 24.5695 12.0748 24.1441C12.223 23.1129 12.642 22.3975 13.1061 21.9721C9.50313 21.5725 5.86797 21.0504 5.86797 14.85C5.86797 13.0775 6.35781 12.1881 7.38906 11.0537C7.22148 10.6348 6.67363 8.90742 7.55664 6.67734C8.90371 6.2584 12.0039 8.41758 12.0039 8.41758C13.293 8.05664 14.6787 7.86973 16.0516 7.86973C17.4244 7.86973 18.8102 8.05664 20.0992 8.41758C20.0992 8.41758 23.1994 6.25195 24.5465 6.67734C25.4295 8.91387 24.8816 10.6348 24.7141 11.0537C25.7453 12.1945 26.377 13.084 26.377 14.85C26.377 21.0697 22.5807 21.566 18.9777 21.9721C19.5707 22.4812 20.0734 23.448 20.0734 24.9627C20.0734 27.1348 20.0541 29.8225 20.0541 30.351C20.0541 30.7699 20.3506 31.2791 21.1691 31.1309C27.6145 28.991 31.9844 22.8744 31.9844 15.7266C31.9844 6.78691 24.7334 0 15.7937 0ZM6.28047 22.2299C6.19668 22.2943 6.21602 22.4426 6.32559 22.565C6.42871 22.6682 6.57695 22.7133 6.66074 22.6295C6.74453 22.565 6.7252 22.4168 6.61562 22.2943C6.5125 22.1912 6.36426 22.1461 6.28047 22.2299ZM5.58437 21.7078C5.53926 21.7916 5.60371 21.8947 5.73262 21.9592C5.83574 22.0236 5.96465 22.0043 6.00977 21.9141C6.05488 21.8303 5.99043 21.7271 5.86152 21.6627C5.73262 21.624 5.62949 21.6434 5.58437 21.7078ZM7.67266 24.0023C7.56953 24.0861 7.6082 24.2795 7.75645 24.402C7.90469 24.5502 8.0916 24.5695 8.17539 24.4664C8.25918 24.3826 8.22051 24.1893 8.0916 24.0668C7.9498 23.9186 7.75645 23.8992 7.67266 24.0023ZM6.93789 23.0549C6.83477 23.1193 6.83477 23.2869 6.93789 23.4352C7.04102 23.5834 7.21504 23.6479 7.29883 23.5834C7.40195 23.4996 7.40195 23.332 7.29883 23.1838C7.20859 23.0355 7.04102 22.9711 6.93789 23.0549Z" fill="white"/>
</svg>
