<svg width="29" height="30" viewBox="0 0 29 30" fill="none" xmlns="http://www.w3.org/2000/svg">
<path d="M26.875 0.147507H2.11855C0.98418 0.147507 0.0625 1.08208 0.0625 2.22934V26.9407C0.0625 28.0879 0.98418 29.0225 2.11855 29.0225H26.875C28.0094 29.0225 28.9375 28.0879 28.9375 26.9407V2.22934C28.9375 1.08208 28.0094 0.147507 26.875 0.147507ZM8.78945 24.8975H4.50977V11.1174H8.7959V24.8975H8.78945ZM6.64961 9.2354C5.27676 9.2354 4.16816 8.12036 4.16816 6.75395C4.16816 5.38755 5.27676 4.27251 6.64961 4.27251C8.01602 4.27251 9.13105 5.38755 9.13105 6.75395C9.13105 8.1268 8.02246 9.2354 6.64961 9.2354ZM24.8318 24.8975H20.5521V18.1944C20.5521 16.5959 20.5199 14.5399 18.3285 14.5399C16.0984 14.5399 15.7568 16.2801 15.7568 18.0784V24.8975H11.4771V11.1174H15.5828V12.9995H15.6408C16.2145 11.9166 17.6131 10.7758 19.6949 10.7758C24.0262 10.7758 24.8318 13.6311 24.8318 17.3436V24.8975Z" fill="white"/>
</svg>
