<svg width="30" height="30" viewBox="0 0 30 30" fill="none" xmlns="http://www.w3.org/2000/svg">
<path d="M0.5625 0.147507V29.0225H29.4375V0.147507H0.5625ZM24.552 6.98598L23.0051 8.46841C22.8697 8.57153 22.8053 8.73911 22.8311 8.90024V19.8122C22.8053 19.9797 22.8697 20.1473 23.0051 20.244L24.5197 21.7264V22.0551H16.9143V21.7393L18.4805 20.2182C18.6352 20.0635 18.6352 20.0184 18.6352 19.7864V10.9627L14.2781 22.0229H13.6916L8.61914 10.9627V18.3748C8.57402 18.6842 8.68359 19 8.90273 19.2256L10.9395 21.6942V22.0229H5.15156V21.6942L7.18828 19.2256C7.40742 19 7.5041 18.6842 7.45254 18.3748V9.80258C7.47832 9.56411 7.38809 9.33208 7.20762 9.17094L5.39648 6.98598V6.65727H11.0232L15.3674 16.1963L19.1895 6.66372H24.552V6.98598Z" fill="white"/>
</svg>
