<svg width="430" height="932" viewBox="0 0 430 932" fill="none" xmlns="http://www.w3.org/2000/svg">
<rect width="430" height="932" fill="url(#paint0_linear_909_81)"/>
<rect width="430" height="932" fill="black" fill-opacity="0.2"/>
<path d="M88.0562 913.597L90.7793 905.758H92.106L88.6846 915H87.7388L88.0562 913.597ZM85.5107 905.758L88.2085 913.597L88.5449 915H87.5991L84.1841 905.758H85.5107ZM96.3932 915.127C95.915 915.127 95.4812 915.047 95.0919 914.886C94.7068 914.721 94.3746 914.49 94.0953 914.194C93.8202 913.898 93.6087 913.546 93.4605 913.14C93.3124 912.734 93.2384 912.29 93.2384 911.807V911.541C93.2384 910.982 93.3209 910.485 93.4859 910.049C93.651 909.609 93.8753 909.236 94.1588 908.932C94.4423 908.627 94.7639 908.396 95.1236 908.24C95.4833 908.083 95.8557 908.005 96.2408 908.005C96.7317 908.005 97.1549 908.09 97.5104 908.259C97.8701 908.428 98.1642 908.665 98.3927 908.97C98.6212 909.27 98.7905 909.626 98.9005 910.036C99.0105 910.442 99.0655 910.887 99.0655 911.369V911.896H93.9366V910.938H97.8912V910.849C97.8743 910.544 97.8108 910.248 97.7008 909.96C97.595 909.672 97.4257 909.435 97.193 909.249C96.9602 909.063 96.6428 908.97 96.2408 908.97C95.9742 908.97 95.7288 909.027 95.5045 909.141C95.2802 909.251 95.0877 909.416 94.9269 909.636C94.766 909.856 94.6412 910.125 94.5523 910.442C94.4635 910.76 94.419 911.126 94.419 911.541V911.807C94.419 912.133 94.4635 912.44 94.5523 912.728C94.6454 913.011 94.7787 913.261 94.9522 913.477C95.13 913.692 95.3437 913.862 95.5934 913.984C95.8473 914.107 96.135 914.168 96.4566 914.168C96.8714 914.168 97.2226 914.084 97.5104 913.915C97.7981 913.745 98.0499 913.519 98.2657 913.235L98.9767 913.8C98.8285 914.025 98.6402 914.238 98.4117 914.441C98.1832 914.645 97.9018 914.81 97.5675 914.937C97.2374 915.063 96.846 915.127 96.3932 915.127ZM102.261 909.211V915H101.087V908.132H102.229L102.261 909.211ZM104.406 908.094L104.4 909.186C104.303 909.164 104.21 909.152 104.121 909.147C104.036 909.139 103.939 909.135 103.829 909.135C103.558 909.135 103.319 909.177 103.112 909.262C102.904 909.346 102.729 909.465 102.585 909.617C102.441 909.77 102.327 909.951 102.242 910.163C102.161 910.37 102.109 910.599 102.083 910.849L101.753 911.039C101.753 910.624 101.793 910.235 101.874 909.871C101.958 909.507 102.087 909.186 102.261 908.906C102.434 908.623 102.654 908.403 102.921 908.246C103.192 908.085 103.514 908.005 103.886 908.005C103.971 908.005 104.068 908.015 104.178 908.037C104.288 908.054 104.364 908.073 104.406 908.094ZM110.141 913.178C110.141 913.009 110.103 912.852 110.027 912.708C109.955 912.56 109.804 912.427 109.576 912.309C109.352 912.186 109.013 912.08 108.56 911.991C108.179 911.911 107.835 911.816 107.526 911.706C107.221 911.596 106.961 911.462 106.745 911.306C106.533 911.149 106.37 910.965 106.256 910.753C106.142 910.542 106.085 910.294 106.085 910.011C106.085 909.74 106.144 909.484 106.263 909.243C106.385 909.001 106.557 908.788 106.777 908.602C107.001 908.415 107.27 908.269 107.583 908.164C107.896 908.058 108.245 908.005 108.63 908.005C109.18 908.005 109.65 908.102 110.039 908.297C110.429 908.492 110.727 908.752 110.934 909.078C111.142 909.399 111.245 909.757 111.245 910.15H110.071C110.071 909.96 110.014 909.776 109.9 909.598C109.79 909.416 109.627 909.266 109.411 909.147C109.199 909.029 108.939 908.97 108.63 908.97C108.304 908.97 108.04 909.021 107.837 909.122C107.638 909.219 107.492 909.344 107.399 909.497C107.31 909.649 107.265 909.81 107.265 909.979C107.265 910.106 107.287 910.22 107.329 910.322C107.375 910.419 107.456 910.51 107.57 910.595C107.684 910.675 107.845 910.751 108.053 910.823C108.26 910.895 108.524 910.967 108.846 911.039C109.409 911.166 109.872 911.318 110.236 911.496C110.6 911.674 110.871 911.892 111.049 912.15C111.226 912.408 111.315 912.721 111.315 913.089C111.315 913.39 111.252 913.665 111.125 913.915C111.002 914.164 110.822 914.38 110.585 914.562C110.353 914.74 110.073 914.879 109.747 914.981C109.426 915.078 109.064 915.127 108.662 915.127C108.057 915.127 107.545 915.019 107.126 914.803C106.707 914.587 106.389 914.308 106.174 913.965C105.958 913.623 105.85 913.261 105.85 912.88H107.031C107.047 913.201 107.141 913.458 107.31 913.648C107.479 913.834 107.686 913.967 107.932 914.048C108.177 914.124 108.421 914.162 108.662 914.162C108.984 914.162 109.252 914.12 109.468 914.035C109.688 913.951 109.855 913.834 109.97 913.686C110.084 913.538 110.141 913.369 110.141 913.178ZM114.784 908.132V915H113.603V908.132H114.784ZM113.514 906.31C113.514 906.12 113.571 905.959 113.685 905.828C113.804 905.696 113.977 905.631 114.206 905.631C114.43 905.631 114.602 905.696 114.72 905.828C114.843 905.959 114.904 906.12 114.904 906.31C114.904 906.492 114.843 906.649 114.72 906.78C114.602 906.907 114.43 906.97 114.206 906.97C113.977 906.97 113.804 906.907 113.685 906.78C113.571 906.649 113.514 906.492 113.514 906.31ZM117.008 911.642V911.496C117.008 911.001 117.08 910.542 117.224 910.119C117.368 909.691 117.575 909.321 117.846 909.008C118.117 908.69 118.444 908.445 118.83 908.271C119.215 908.094 119.646 908.005 120.125 908.005C120.607 908.005 121.041 908.094 121.426 908.271C121.815 908.445 122.145 908.69 122.416 909.008C122.691 909.321 122.901 909.691 123.044 910.119C123.188 910.542 123.26 911.001 123.26 911.496V911.642C123.26 912.137 123.188 912.596 123.044 913.02C122.901 913.443 122.691 913.813 122.416 914.13C122.145 914.444 121.817 914.689 121.432 914.867C121.051 915.04 120.62 915.127 120.137 915.127C119.655 915.127 119.221 915.04 118.836 914.867C118.451 914.689 118.121 914.444 117.846 914.13C117.575 913.813 117.368 913.443 117.224 913.02C117.08 912.596 117.008 912.137 117.008 911.642ZM118.182 911.496V911.642C118.182 911.985 118.222 912.309 118.303 912.613C118.383 912.914 118.504 913.18 118.665 913.413C118.83 913.646 119.035 913.83 119.28 913.965C119.526 914.097 119.811 914.162 120.137 914.162C120.459 914.162 120.74 914.097 120.981 913.965C121.227 913.83 121.43 913.646 121.591 913.413C121.752 913.18 121.872 912.914 121.953 912.613C122.037 912.309 122.08 911.985 122.08 911.642V911.496C122.08 911.158 122.037 910.838 121.953 910.538C121.872 910.233 121.75 909.964 121.584 909.731C121.424 909.494 121.221 909.308 120.975 909.173C120.734 909.037 120.45 908.97 120.125 908.97C119.803 908.97 119.519 909.037 119.274 909.173C119.033 909.308 118.83 909.494 118.665 909.731C118.504 909.964 118.383 910.233 118.303 910.538C118.222 910.838 118.182 911.158 118.182 911.496ZM126.557 909.598V915H125.383V908.132H126.494L126.557 909.598ZM126.278 911.306L125.789 911.287C125.793 910.817 125.863 910.383 125.999 909.985C126.134 909.583 126.324 909.234 126.57 908.938C126.815 908.642 127.107 908.413 127.446 908.252C127.789 908.087 128.167 908.005 128.582 908.005C128.921 908.005 129.225 908.051 129.496 908.145C129.767 908.233 129.998 908.377 130.188 908.576C130.383 908.775 130.531 909.033 130.632 909.351C130.734 909.664 130.785 910.047 130.785 910.5V915H129.604V910.487C129.604 910.127 129.551 909.839 129.445 909.624C129.34 909.403 129.185 909.245 128.982 909.147C128.779 909.046 128.529 908.995 128.233 908.995C127.941 908.995 127.674 909.056 127.433 909.179C127.196 909.302 126.991 909.471 126.817 909.687C126.648 909.903 126.515 910.15 126.418 910.43C126.324 910.705 126.278 910.997 126.278 911.306ZM140.825 905.707V915H139.651V907.173L137.283 908.037V906.977L140.641 905.707H140.825ZM145.075 914.378C145.075 914.179 145.136 914.012 145.259 913.876C145.386 913.737 145.568 913.667 145.805 913.667C146.042 913.667 146.221 913.737 146.344 913.876C146.471 914.012 146.535 914.179 146.535 914.378C146.535 914.573 146.471 914.738 146.344 914.873C146.221 915.008 146.042 915.076 145.805 915.076C145.568 915.076 145.386 915.008 145.259 914.873C145.136 914.738 145.075 914.573 145.075 914.378ZM154.808 909.643V911.052C154.808 911.809 154.74 912.448 154.605 912.969C154.47 913.489 154.275 913.908 154.021 914.226C153.767 914.543 153.46 914.774 153.101 914.917C152.745 915.057 152.343 915.127 151.895 915.127C151.539 915.127 151.211 915.083 150.911 914.994C150.61 914.905 150.339 914.763 150.098 914.568C149.861 914.369 149.658 914.111 149.489 913.794C149.319 913.477 149.19 913.091 149.102 912.639C149.013 912.186 148.968 911.657 148.968 911.052V909.643C148.968 908.885 149.036 908.25 149.171 907.738C149.311 907.226 149.508 906.816 149.762 906.507C150.016 906.194 150.32 905.969 150.676 905.834C151.035 905.699 151.438 905.631 151.882 905.631C152.242 905.631 152.572 905.675 152.872 905.764C153.177 905.849 153.448 905.986 153.685 906.177C153.922 906.363 154.123 906.613 154.288 906.926C154.457 907.235 154.586 907.613 154.675 908.062C154.764 908.511 154.808 909.037 154.808 909.643ZM153.627 911.242V909.446C153.627 909.031 153.602 908.667 153.551 908.354C153.505 908.037 153.435 907.766 153.342 907.542C153.249 907.317 153.13 907.135 152.986 906.996C152.847 906.856 152.684 906.754 152.498 906.691C152.316 906.623 152.11 906.589 151.882 906.589C151.603 906.589 151.355 906.642 151.139 906.748C150.923 906.85 150.741 907.013 150.593 907.237C150.449 907.461 150.339 907.755 150.263 908.119C150.187 908.483 150.149 908.925 150.149 909.446V911.242C150.149 911.657 150.172 912.023 150.219 912.34C150.27 912.658 150.344 912.933 150.441 913.166C150.538 913.394 150.657 913.582 150.796 913.73C150.936 913.879 151.097 913.989 151.279 914.061C151.465 914.128 151.67 914.162 151.895 914.162C152.182 914.162 152.434 914.107 152.65 913.997C152.866 913.887 153.046 913.716 153.189 913.483C153.338 913.246 153.448 912.943 153.52 912.575C153.591 912.203 153.627 911.758 153.627 911.242ZM162.138 905.758V916.714H161.193V905.758H162.138ZM172.255 911.375H169.786V910.379H172.255C172.733 910.379 173.121 910.303 173.417 910.15C173.713 909.998 173.929 909.786 174.064 909.516C174.204 909.245 174.274 908.936 174.274 908.589C174.274 908.271 174.204 907.973 174.064 907.694C173.929 907.415 173.713 907.19 173.417 907.021C173.121 906.847 172.733 906.761 172.255 906.761H170.072V915H168.847V905.758H172.255C172.954 905.758 173.544 905.878 174.026 906.12C174.509 906.361 174.875 906.695 175.124 907.123C175.374 907.546 175.499 908.03 175.499 908.576C175.499 909.169 175.374 909.674 175.124 910.093C174.875 910.512 174.509 910.832 174.026 911.052C173.544 911.268 172.954 911.375 172.255 911.375ZM177.12 911.642V911.496C177.12 911.001 177.192 910.542 177.336 910.119C177.48 909.691 177.687 909.321 177.958 909.008C178.229 908.69 178.557 908.445 178.942 908.271C179.327 908.094 179.759 908.005 180.237 908.005C180.719 908.005 181.153 908.094 181.538 908.271C181.927 908.445 182.257 908.69 182.528 909.008C182.803 909.321 183.013 909.691 183.157 910.119C183.301 910.542 183.373 911.001 183.373 911.496V911.642C183.373 912.137 183.301 912.596 183.157 913.02C183.013 913.443 182.803 913.813 182.528 914.13C182.257 914.444 181.93 914.689 181.544 914.867C181.164 915.04 180.732 915.127 180.25 915.127C179.767 915.127 179.333 915.04 178.948 914.867C178.563 914.689 178.233 914.444 177.958 914.13C177.687 913.813 177.48 913.443 177.336 913.02C177.192 912.596 177.12 912.137 177.12 911.642ZM178.294 911.496V911.642C178.294 911.985 178.335 912.309 178.415 912.613C178.495 912.914 178.616 913.18 178.777 913.413C178.942 913.646 179.147 913.83 179.393 913.965C179.638 914.097 179.924 914.162 180.25 914.162C180.571 914.162 180.853 914.097 181.094 913.965C181.339 913.83 181.542 913.646 181.703 913.413C181.864 913.18 181.985 912.914 182.065 912.613C182.15 912.309 182.192 911.985 182.192 911.642V911.496C182.192 911.158 182.15 910.838 182.065 910.538C181.985 910.233 181.862 909.964 181.697 909.731C181.536 909.494 181.333 909.308 181.087 909.173C180.846 909.037 180.563 908.97 180.237 908.97C179.915 908.97 179.632 909.037 179.386 909.173C179.145 909.308 178.942 909.494 178.777 909.731C178.616 909.964 178.495 910.233 178.415 910.538C178.335 910.838 178.294 911.158 178.294 911.496ZM187.234 913.781L188.999 908.132H189.774L189.621 909.255L187.825 915H187.069L187.234 913.781ZM186.047 908.132L187.552 913.845L187.66 915H186.866L184.873 908.132H186.047ZM191.462 913.8L192.897 908.132H194.065L192.071 915H191.284L191.462 913.8ZM189.945 908.132L191.671 913.686L191.868 915H191.119L189.272 909.243L189.12 908.132H189.945ZM198.771 915.127C198.293 915.127 197.859 915.047 197.469 914.886C197.084 914.721 196.752 914.49 196.473 914.194C196.198 913.898 195.986 913.546 195.838 913.14C195.69 912.734 195.616 912.29 195.616 911.807V911.541C195.616 910.982 195.698 910.485 195.863 910.049C196.029 909.609 196.253 909.236 196.536 908.932C196.82 908.627 197.141 908.396 197.501 908.24C197.861 908.083 198.233 908.005 198.618 908.005C199.109 908.005 199.532 908.09 199.888 908.259C200.248 908.428 200.542 908.665 200.77 908.97C200.999 909.27 201.168 909.626 201.278 910.036C201.388 910.442 201.443 910.887 201.443 911.369V911.896H196.314V910.938H200.269V910.849C200.252 910.544 200.188 910.248 200.078 909.96C199.973 909.672 199.803 909.435 199.571 909.249C199.338 909.063 199.02 908.97 198.618 908.97C198.352 908.97 198.106 909.027 197.882 909.141C197.658 909.251 197.465 909.416 197.304 909.636C197.144 909.856 197.019 910.125 196.93 910.442C196.841 910.76 196.797 911.126 196.797 911.541V911.807C196.797 912.133 196.841 912.44 196.93 912.728C197.023 913.011 197.156 913.261 197.33 913.477C197.508 913.692 197.721 913.862 197.971 913.984C198.225 914.107 198.513 914.168 198.834 914.168C199.249 914.168 199.6 914.084 199.888 913.915C200.176 913.745 200.427 913.519 200.643 913.235L201.354 913.8C201.206 914.025 201.018 914.238 200.789 914.441C200.561 914.645 200.279 914.81 199.945 914.937C199.615 915.063 199.224 915.127 198.771 915.127ZM204.638 909.211V915H203.464V908.132H204.607L204.638 909.211ZM206.784 908.094L206.778 909.186C206.68 909.164 206.587 909.152 206.498 909.147C206.414 909.139 206.316 909.135 206.206 909.135C205.936 909.135 205.696 909.177 205.489 909.262C205.282 909.346 205.106 909.465 204.962 909.617C204.818 909.77 204.704 909.951 204.619 910.163C204.539 910.37 204.486 910.599 204.461 910.849L204.131 911.039C204.131 910.624 204.171 910.235 204.251 909.871C204.336 909.507 204.465 909.186 204.638 908.906C204.812 908.623 205.032 908.403 205.299 908.246C205.569 908.085 205.891 908.005 206.263 908.005C206.348 908.005 206.445 908.015 206.555 908.037C206.665 908.054 206.742 908.073 206.784 908.094ZM211.243 915.127C210.764 915.127 210.331 915.047 209.941 914.886C209.556 914.721 209.224 914.49 208.945 914.194C208.67 913.898 208.458 913.546 208.31 913.14C208.162 912.734 208.088 912.29 208.088 911.807V911.541C208.088 910.982 208.17 910.485 208.335 910.049C208.5 909.609 208.725 909.236 209.008 908.932C209.292 908.627 209.613 908.396 209.973 908.24C210.333 908.083 210.705 908.005 211.09 908.005C211.581 908.005 212.004 908.09 212.36 908.259C212.719 908.428 213.014 908.665 213.242 908.97C213.471 909.27 213.64 909.626 213.75 910.036C213.86 910.442 213.915 910.887 213.915 911.369V911.896H208.786V910.938H212.741V910.849C212.724 910.544 212.66 910.248 212.55 909.96C212.444 909.672 212.275 909.435 212.042 909.249C211.81 909.063 211.492 908.97 211.09 908.97C210.824 908.97 210.578 909.027 210.354 909.141C210.13 909.251 209.937 909.416 209.776 909.636C209.615 909.856 209.491 910.125 209.402 910.442C209.313 910.76 209.268 911.126 209.268 911.541V911.807C209.268 912.133 209.313 912.44 209.402 912.728C209.495 913.011 209.628 913.261 209.802 913.477C209.979 913.692 210.193 913.862 210.443 913.984C210.697 914.107 210.984 914.168 211.306 914.168C211.721 914.168 212.072 914.084 212.36 913.915C212.648 913.745 212.899 913.519 213.115 913.235L213.826 913.8C213.678 914.025 213.49 914.238 213.261 914.441C213.033 914.645 212.751 914.81 212.417 914.937C212.087 915.063 211.695 915.127 211.243 915.127ZM220.265 913.667V905.25H221.446V915H220.367L220.265 913.667ZM215.644 911.642V911.509C215.644 910.984 215.708 910.508 215.834 910.081C215.966 909.649 216.15 909.279 216.387 908.97C216.628 908.661 216.914 908.424 217.244 908.259C217.578 908.09 217.95 908.005 218.361 908.005C218.792 908.005 219.169 908.081 219.491 908.233C219.817 908.382 220.092 908.599 220.316 908.887C220.544 909.171 220.724 909.514 220.855 909.916C220.987 910.318 221.078 910.772 221.128 911.28V911.864C221.082 912.368 220.991 912.821 220.855 913.223C220.724 913.625 220.544 913.967 220.316 914.251C220.092 914.535 219.817 914.752 219.491 914.905C219.165 915.053 218.784 915.127 218.348 915.127C217.946 915.127 217.578 915.04 217.244 914.867C216.914 914.693 216.628 914.45 216.387 914.137C216.15 913.824 215.966 913.455 215.834 913.032C215.708 912.605 215.644 912.141 215.644 911.642ZM216.825 911.509V911.642C216.825 911.985 216.859 912.306 216.926 912.607C216.998 912.907 217.108 913.172 217.256 913.4C217.404 913.629 217.593 913.809 217.821 913.94C218.05 914.067 218.323 914.13 218.64 914.13C219.029 914.13 219.349 914.048 219.599 913.883C219.853 913.718 220.056 913.5 220.208 913.229C220.36 912.958 220.479 912.664 220.563 912.347V910.817C220.513 910.584 220.439 910.36 220.341 910.144C220.248 909.924 220.125 909.729 219.973 909.56C219.825 909.387 219.641 909.249 219.421 909.147C219.205 909.046 218.949 908.995 218.653 908.995C218.331 908.995 218.054 909.063 217.821 909.198C217.593 909.329 217.404 909.511 217.256 909.744C217.108 909.973 216.998 910.239 216.926 910.544C216.859 910.844 216.825 911.166 216.825 911.509ZM227.792 905.25H228.973V913.667L228.871 915H227.792V905.25ZM233.613 911.509V911.642C233.613 912.141 233.554 912.605 233.435 913.032C233.317 913.455 233.143 913.824 232.915 914.137C232.686 914.45 232.407 914.693 232.077 914.867C231.747 915.04 231.368 915.127 230.941 915.127C230.505 915.127 230.122 915.053 229.792 914.905C229.466 914.752 229.191 914.535 228.967 914.251C228.742 913.967 228.562 913.625 228.427 913.223C228.296 912.821 228.205 912.368 228.154 911.864V911.28C228.205 910.772 228.296 910.318 228.427 909.916C228.562 909.514 228.742 909.171 228.967 908.887C229.191 908.599 229.466 908.382 229.792 908.233C230.118 908.081 230.496 908.005 230.928 908.005C231.36 908.005 231.743 908.09 232.077 908.259C232.411 908.424 232.69 908.661 232.915 908.97C233.143 909.279 233.317 909.649 233.435 910.081C233.554 910.508 233.613 910.984 233.613 911.509ZM232.432 911.642V911.509C232.432 911.166 232.401 910.844 232.337 910.544C232.274 910.239 232.172 909.973 232.032 909.744C231.893 909.511 231.709 909.329 231.48 909.198C231.252 909.063 230.97 908.995 230.636 908.995C230.34 908.995 230.082 909.046 229.862 909.147C229.646 909.249 229.462 909.387 229.309 909.56C229.157 909.729 229.032 909.924 228.935 910.144C228.842 910.36 228.772 910.584 228.725 910.817V912.347C228.793 912.643 228.903 912.929 229.055 913.204C229.212 913.474 229.419 913.697 229.677 913.87C229.94 914.044 230.264 914.13 230.649 914.13C230.966 914.13 231.237 914.067 231.461 913.94C231.69 913.809 231.874 913.629 232.013 913.4C232.157 913.172 232.263 912.907 232.331 912.607C232.398 912.306 232.432 911.985 232.432 911.642ZM237.602 914.289L239.512 908.132H240.769L238.014 916.06C237.951 916.229 237.866 916.411 237.761 916.606C237.659 916.805 237.528 916.993 237.367 917.171C237.206 917.349 237.012 917.493 236.783 917.603C236.559 917.717 236.29 917.774 235.977 917.774C235.884 917.774 235.765 917.761 235.621 917.736C235.478 917.71 235.376 917.689 235.317 917.672L235.31 916.72C235.344 916.724 235.397 916.729 235.469 916.733C235.545 916.741 235.598 916.746 235.628 916.746C235.894 916.746 236.121 916.71 236.307 916.638C236.493 916.57 236.65 916.454 236.777 916.289C236.908 916.128 237.02 915.906 237.113 915.622L237.602 914.289ZM236.199 908.132L237.983 913.464L238.287 914.702L237.443 915.133L234.917 908.132H236.199ZM252.137 914.003V915H247.516V914.003H252.137ZM247.757 905.758V915H246.532V905.758H247.757ZM255.288 908.132V915H254.107V908.132H255.288ZM254.018 906.31C254.018 906.12 254.075 905.959 254.19 905.828C254.308 905.696 254.482 905.631 254.71 905.631C254.934 905.631 255.106 905.696 255.224 905.828C255.347 905.959 255.408 906.12 255.408 906.31C255.408 906.492 255.347 906.649 255.224 906.78C255.106 906.907 254.934 906.97 254.71 906.97C254.482 906.97 254.308 906.907 254.19 906.78C254.075 906.649 254.018 906.492 254.018 906.31ZM258.997 909.598V915H257.823V908.132H258.934L258.997 909.598ZM258.718 911.306L258.229 911.287C258.233 910.817 258.303 910.383 258.439 909.985C258.574 909.583 258.765 909.234 259.01 908.938C259.255 908.642 259.547 908.413 259.886 908.252C260.229 908.087 260.607 908.005 261.022 908.005C261.361 908.005 261.665 908.051 261.936 908.145C262.207 908.233 262.438 908.377 262.628 908.576C262.823 908.775 262.971 909.033 263.072 909.351C263.174 909.664 263.225 910.047 263.225 910.5V915H262.044V910.487C262.044 910.127 261.991 909.839 261.885 909.624C261.78 909.403 261.625 909.245 261.422 909.147C261.219 909.046 260.969 908.995 260.673 908.995C260.381 908.995 260.114 909.056 259.873 909.179C259.636 909.302 259.431 909.471 259.258 909.687C259.088 909.903 258.955 910.15 258.858 910.43C258.765 910.705 258.718 910.997 258.718 911.306ZM268.407 914.162C268.686 914.162 268.944 914.105 269.181 913.991C269.418 913.876 269.613 913.72 269.765 913.521C269.918 913.318 270.005 913.087 270.026 912.829H271.143C271.122 913.235 270.984 913.614 270.73 913.965C270.481 914.312 270.153 914.594 269.746 914.81C269.34 915.021 268.894 915.127 268.407 915.127C267.891 915.127 267.44 915.036 267.055 914.854C266.674 914.672 266.357 914.422 266.103 914.105C265.853 913.788 265.665 913.424 265.538 913.013C265.415 912.598 265.354 912.16 265.354 911.699V911.433C265.354 910.971 265.415 910.535 265.538 910.125C265.665 909.71 265.853 909.344 266.103 909.027C266.357 908.709 266.674 908.46 267.055 908.278C267.44 908.096 267.891 908.005 268.407 908.005C268.944 908.005 269.414 908.115 269.816 908.335C270.218 908.551 270.533 908.847 270.762 909.224C270.995 909.596 271.122 910.019 271.143 910.493H270.026C270.005 910.21 269.924 909.954 269.784 909.725C269.649 909.497 269.463 909.315 269.226 909.179C268.993 909.04 268.72 908.97 268.407 908.97C268.047 908.97 267.745 909.042 267.499 909.186C267.258 909.325 267.066 909.516 266.922 909.757C266.782 909.994 266.68 910.258 266.617 910.55C266.558 910.838 266.528 911.132 266.528 911.433V911.699C266.528 912 266.558 912.296 266.617 912.588C266.676 912.88 266.776 913.144 266.915 913.381C267.059 913.618 267.252 913.809 267.493 913.953C267.738 914.092 268.043 914.162 268.407 914.162ZM272.802 911.642V911.496C272.802 911.001 272.874 910.542 273.018 910.119C273.162 909.691 273.369 909.321 273.64 909.008C273.911 908.69 274.239 908.445 274.624 908.271C275.009 908.094 275.441 908.005 275.919 908.005C276.401 908.005 276.835 908.094 277.22 908.271C277.609 908.445 277.94 908.69 278.21 909.008C278.485 909.321 278.695 909.691 278.839 910.119C278.983 910.542 279.055 911.001 279.055 911.496V911.642C279.055 912.137 278.983 912.596 278.839 913.02C278.695 913.443 278.485 913.813 278.21 914.13C277.94 914.444 277.612 914.689 277.226 914.867C276.846 915.04 276.414 915.127 275.932 915.127C275.449 915.127 275.015 915.04 274.63 914.867C274.245 914.689 273.915 914.444 273.64 914.13C273.369 913.813 273.162 913.443 273.018 913.02C272.874 912.596 272.802 912.137 272.802 911.642ZM273.976 911.496V911.642C273.976 911.985 274.017 912.309 274.097 912.613C274.177 912.914 274.298 913.18 274.459 913.413C274.624 913.646 274.829 913.83 275.075 913.965C275.32 914.097 275.606 914.162 275.932 914.162C276.253 914.162 276.535 914.097 276.776 913.965C277.021 913.83 277.224 913.646 277.385 913.413C277.546 913.18 277.667 912.914 277.747 912.613C277.832 912.309 277.874 911.985 277.874 911.642V911.496C277.874 911.158 277.832 910.838 277.747 910.538C277.667 910.233 277.544 909.964 277.379 909.731C277.218 909.494 277.015 909.308 276.769 909.173C276.528 909.037 276.245 908.97 275.919 908.97C275.597 908.97 275.314 909.037 275.068 909.173C274.827 909.308 274.624 909.494 274.459 909.731C274.298 909.964 274.177 910.233 274.097 910.538C274.017 910.838 273.976 911.158 273.976 911.496ZM282.453 905.25V915H281.272V905.25H282.453ZM286.163 909.598V915H284.988V908.132H286.099L286.163 909.598ZM285.883 911.306L285.395 911.287C285.399 910.817 285.469 910.383 285.604 909.985C285.74 909.583 285.93 909.234 286.175 908.938C286.421 908.642 286.713 908.413 287.051 908.252C287.394 908.087 287.773 908.005 288.188 908.005C288.526 908.005 288.831 908.051 289.102 908.145C289.372 908.233 289.603 908.377 289.794 908.576C289.988 908.775 290.136 909.033 290.238 909.351C290.339 909.664 290.39 910.047 290.39 910.5V915H289.21V910.487C289.21 910.127 289.157 909.839 289.051 909.624C288.945 909.403 288.791 909.245 288.587 909.147C288.384 909.046 288.135 908.995 287.838 908.995C287.546 908.995 287.28 909.056 287.039 909.179C286.802 909.302 286.596 909.471 286.423 909.687C286.254 909.903 286.12 910.15 286.023 910.43C285.93 910.705 285.883 910.997 285.883 911.306ZM298.101 905.758V915H296.876V905.758H298.101ZM301.973 909.916V910.918H297.835V909.916H301.973ZM302.602 905.758V906.761H297.835V905.758H302.602ZM307.245 915.127C306.766 915.127 306.333 915.047 305.943 914.886C305.558 914.721 305.226 914.49 304.947 914.194C304.672 913.898 304.46 913.546 304.312 913.14C304.164 912.734 304.09 912.29 304.09 911.807V911.541C304.09 910.982 304.172 910.485 304.337 910.049C304.502 909.609 304.727 909.236 305.01 908.932C305.294 908.627 305.615 908.396 305.975 908.24C306.335 908.083 306.707 908.005 307.092 908.005C307.583 908.005 308.006 908.09 308.362 908.259C308.721 908.428 309.016 908.665 309.244 908.97C309.473 909.27 309.642 909.626 309.752 910.036C309.862 910.442 309.917 910.887 309.917 911.369V911.896H304.788V910.938H308.743V910.849C308.726 910.544 308.662 910.248 308.552 909.96C308.446 909.672 308.277 909.435 308.044 909.249C307.812 909.063 307.494 908.97 307.092 908.97C306.826 908.97 306.58 909.027 306.356 909.141C306.132 909.251 305.939 909.416 305.778 909.636C305.617 909.856 305.493 910.125 305.404 910.442C305.315 910.76 305.27 911.126 305.27 911.541V911.807C305.27 912.133 305.315 912.44 305.404 912.728C305.497 913.011 305.63 913.261 305.804 913.477C305.981 913.692 306.195 913.862 306.445 913.984C306.699 914.107 306.986 914.168 307.308 914.168C307.723 914.168 308.074 914.084 308.362 913.915C308.649 913.745 308.901 913.519 309.117 913.235L309.828 913.8C309.68 914.025 309.492 914.238 309.263 914.441C309.035 914.645 308.753 914.81 308.419 914.937C308.089 915.063 307.697 915.127 307.245 915.127ZM313.112 909.211V915H311.938V908.132H313.081L313.112 909.211ZM315.258 908.094L315.251 909.186C315.154 909.164 315.061 909.152 314.972 909.147C314.888 909.139 314.79 909.135 314.68 909.135C314.409 909.135 314.17 909.177 313.963 909.262C313.756 909.346 313.58 909.465 313.436 909.617C313.292 909.77 313.178 909.951 313.093 910.163C313.013 910.37 312.96 910.599 312.935 910.849L312.604 911.039C312.604 910.624 312.645 910.235 312.725 909.871C312.81 909.507 312.939 909.186 313.112 908.906C313.286 908.623 313.506 908.403 313.772 908.246C314.043 908.085 314.365 908.005 314.737 908.005C314.822 908.005 314.919 908.015 315.029 908.037C315.139 908.054 315.215 908.073 315.258 908.094ZM318.168 909.211V915H316.993V908.132H318.136L318.168 909.211ZM320.313 908.094L320.307 909.186C320.209 909.164 320.116 909.152 320.027 909.147C319.943 909.139 319.845 909.135 319.735 909.135C319.465 909.135 319.226 909.177 319.018 909.262C318.811 909.346 318.635 909.465 318.491 909.617C318.347 909.77 318.233 909.951 318.149 910.163C318.068 910.37 318.015 910.599 317.99 910.849L317.66 911.039C317.66 910.624 317.7 910.235 317.78 909.871C317.865 909.507 317.994 909.186 318.168 908.906C318.341 908.623 318.561 908.403 318.828 908.246C319.099 908.085 319.42 908.005 319.793 908.005C319.877 908.005 319.975 908.015 320.085 908.037C320.195 908.054 320.271 908.073 320.313 908.094ZM324.772 915.127C324.293 915.127 323.86 915.047 323.47 914.886C323.085 914.721 322.753 914.49 322.474 914.194C322.199 913.898 321.987 913.546 321.839 913.14C321.691 912.734 321.617 912.29 321.617 911.807V911.541C321.617 910.982 321.699 910.485 321.864 910.049C322.029 909.609 322.254 909.236 322.537 908.932C322.821 908.627 323.142 908.396 323.502 908.24C323.862 908.083 324.234 908.005 324.619 908.005C325.11 908.005 325.533 908.09 325.889 908.259C326.249 908.428 326.543 908.665 326.771 908.97C327 909.27 327.169 909.626 327.279 910.036C327.389 910.442 327.444 910.887 327.444 911.369V911.896H322.315V910.938H326.27V910.849C326.253 910.544 326.189 910.248 326.079 909.96C325.974 909.672 325.804 909.435 325.571 909.249C325.339 909.063 325.021 908.97 324.619 908.97C324.353 908.97 324.107 909.027 323.883 909.141C323.659 909.251 323.466 909.416 323.305 909.636C323.145 909.856 323.02 910.125 322.931 910.442C322.842 910.76 322.798 911.126 322.798 911.541V911.807C322.798 912.133 322.842 912.44 322.931 912.728C323.024 913.011 323.157 913.261 323.331 913.477C323.508 913.692 323.722 913.862 323.972 913.984C324.226 914.107 324.514 914.168 324.835 914.168C325.25 914.168 325.601 914.084 325.889 913.915C326.177 913.745 326.428 913.519 326.644 913.235L327.355 913.8C327.207 914.025 327.019 914.238 326.79 914.441C326.562 914.645 326.28 914.81 325.946 914.937C325.616 915.063 325.224 915.127 324.772 915.127ZM330.741 908.132V915H329.56V908.132H330.741ZM329.471 906.31C329.471 906.12 329.529 905.959 329.643 905.828C329.761 905.696 329.935 905.631 330.163 905.631C330.388 905.631 330.559 905.696 330.678 905.828C330.8 905.959 330.862 906.12 330.862 906.31C330.862 906.492 330.8 906.649 330.678 906.78C330.559 906.907 330.388 906.97 330.163 906.97C329.935 906.97 329.761 906.907 329.643 906.78C329.529 906.649 329.471 906.492 329.471 906.31ZM334.451 909.211V915H333.276V908.132H334.419L334.451 909.211ZM336.596 908.094L336.59 909.186C336.492 909.164 336.399 909.152 336.31 909.147C336.226 909.139 336.128 909.135 336.018 909.135C335.748 909.135 335.509 909.177 335.301 909.262C335.094 909.346 334.918 909.465 334.774 909.617C334.63 909.77 334.516 909.951 334.432 910.163C334.351 910.37 334.298 910.599 334.273 910.849L333.943 911.039C333.943 910.624 333.983 910.235 334.063 909.871C334.148 909.507 334.277 909.186 334.451 908.906C334.624 908.623 334.844 908.403 335.111 908.246C335.382 908.085 335.703 908.005 336.076 908.005C336.16 908.005 336.258 908.015 336.368 908.037C336.478 908.054 336.554 908.073 336.596 908.094ZM342.127 913.826V910.29C342.127 910.019 342.072 909.784 341.962 909.585C341.857 909.382 341.696 909.226 341.48 909.116C341.264 909.006 340.998 908.951 340.68 908.951C340.384 908.951 340.124 909.001 339.899 909.103C339.679 909.205 339.506 909.338 339.379 909.503C339.256 909.668 339.195 909.846 339.195 910.036H338.021C338.021 909.791 338.084 909.547 338.211 909.306C338.338 909.065 338.52 908.847 338.757 908.652C338.998 908.453 339.286 908.297 339.62 908.183C339.959 908.064 340.335 908.005 340.75 908.005C341.249 908.005 341.689 908.09 342.07 908.259C342.455 908.428 342.756 908.684 342.972 909.027C343.192 909.365 343.302 909.791 343.302 910.303V913.502C343.302 913.73 343.321 913.974 343.359 914.232C343.401 914.49 343.463 914.712 343.543 914.898V915H342.318C342.259 914.865 342.212 914.685 342.178 914.46C342.144 914.232 342.127 914.02 342.127 913.826ZM342.331 910.836L342.343 911.661H341.156C340.822 911.661 340.524 911.689 340.261 911.744C339.999 911.794 339.779 911.873 339.601 911.979C339.423 912.084 339.288 912.218 339.195 912.378C339.102 912.535 339.055 912.719 339.055 912.931C339.055 913.146 339.104 913.343 339.201 913.521C339.299 913.699 339.444 913.84 339.639 913.946C339.838 914.048 340.081 914.099 340.369 914.099C340.729 914.099 341.046 914.022 341.321 913.87C341.596 913.718 341.814 913.532 341.975 913.312C342.14 913.091 342.229 912.878 342.242 912.67L342.743 913.235C342.714 913.413 342.633 913.61 342.502 913.826C342.371 914.042 342.195 914.249 341.975 914.448C341.759 914.642 341.501 914.805 341.201 914.937C340.904 915.063 340.57 915.127 340.198 915.127C339.732 915.127 339.324 915.036 338.973 914.854C338.626 914.672 338.355 914.429 338.16 914.124C337.97 913.815 337.875 913.47 337.875 913.089C337.875 912.721 337.946 912.397 338.09 912.118C338.234 911.835 338.442 911.6 338.712 911.414C338.983 911.223 339.309 911.079 339.69 910.982C340.071 910.885 340.496 910.836 340.966 910.836H342.331Z" fill="white" fill-opacity="0.63"/>
<rect x="116" y="507" width="198" height="2" fill="#A3B0FF"/>
<rect x="116" y="507" width="134" height="2" fill="#FFF4F4"/>
<path d="M56.024 416.256H54.008V420C56.912 420 59.768 420 62.624 420V416.64L60.752 416.496V414.576H62.6L64.688 417.576V420C66.944 420 69.2 420 71.456 420V416.256H69.272L67.496 413.904C70.088 412.68 70.76 410.976 70.76 408.984C70.76 405.96 68.528 403.2 64.232 403.2H54.008V406.92H56.024V416.256ZM64.208 406.992C65.48 406.992 66.056 407.928 66.056 409.008C66.056 410.088 65.432 411.024 64.256 411.024H60.752V406.992H64.208ZM85.805 415.992H81.005V413.448H85.037V409.752H81.005V407.16H85.493L85.589 408.84H89.189V403.2C84.269 403.2 79.373 403.2 74.453 403.2V406.92H76.301V416.256H74.453V420C79.469 420 84.509 420 89.501 420V414.312H85.901L85.805 415.992ZM105.964 404.76C104.044 403.248 102.076 402.744 99.6515 402.744C96.4115 402.744 92.5715 404.328 92.5715 408.024C92.5715 412.176 96.0515 413.136 99.4595 413.448C101.308 413.64 102.292 414.072 102.292 414.888C102.292 415.848 101.212 416.4 99.6275 416.4C98.7635 416.4 97.7555 416.256 96.7475 415.872L96.6755 413.928H92.5715V418.128C94.6835 419.904 96.8675 420.48 99.6035 420.456C103.396 420.432 107.02 418.776 107.02 414.984C107.02 411.024 103.444 409.968 100.156 409.632C98.4755 409.464 97.3235 409.152 97.3235 408.024C97.3235 406.896 98.7635 406.608 99.6515 406.608C100.42 406.608 101.14 406.68 101.788 406.872L101.86 408.816H105.964C105.964 407.472 105.964 406.104 105.964 404.76ZM111.89 406.92C111.89 410.04 111.89 413.112 111.89 416.256H109.922V420C112.826 420 115.73 420 118.658 420V416.256H116.666C116.666 413.112 116.666 410.04 116.666 406.92H118.658V403.2C115.73 403.2 112.826 403.2 109.922 403.2V406.92H111.89ZM123.894 406.968V416.256H122.094V420H137.094V413.304H132.942L132.75 415.968H128.67V406.968H130.662V403.2C127.758 403.2 124.83 403.2 121.974 403.2V406.968H123.894ZM141.853 406.92C141.853 410.04 141.853 413.112 141.853 416.256H139.885V420C142.789 420 145.693 420 148.621 420V416.256H146.629C146.629 413.112 146.629 410.04 146.629 406.92H148.621V403.2C145.693 403.2 142.789 403.2 139.885 403.2V406.92H141.853ZM163.313 415.992H158.513V413.448H162.545V409.752H158.513V407.16H163.001L163.097 408.84H166.697V403.2C161.777 403.2 156.881 403.2 151.961 403.2V406.92H153.809V416.256H151.961V420C156.977 420 162.017 420 167.009 420V414.312H163.409L163.313 415.992ZM176.127 403.2H170.103V406.968H172.095V416.256H170.103V420C172.911 420 175.719 420 178.551 420V416.256H176.919V414.6L176.847 410.952L183.831 420H187.887V406.968H189.831V403.2C187.071 403.2 184.239 403.2 181.455 403.2V406.968H183.087V408.96C183.135 409.608 183.135 410.376 183.231 412.392L176.127 403.2ZM205.426 414.672C204.298 415.824 202.81 416.328 201.418 416.328C198.658 416.304 196.858 414.408 196.858 411.6C196.858 408.936 198.514 406.872 201.466 406.872C202.018 406.872 202.594 406.92 203.194 407.136L203.314 409.824H207.346V404.976C205.81 403.464 203.602 402.768 201.466 402.768C195.154 402.768 192.106 407.28 192.154 411.6C192.178 417.24 196.018 420.456 201.418 420.432C204.082 420.408 206.314 419.64 208.21 417.792L205.426 414.672ZM222.178 415.992H217.378V413.448H221.41V409.752H217.378V407.16H221.866L221.962 408.84H225.562V403.2C220.642 403.2 215.746 403.2 210.826 403.2V406.92H212.674V416.256H210.826V420C215.842 420 220.882 420 225.874 420V414.312H222.274L222.178 415.992Z" fill="white"/>
<rect x="233" y="394" width="145" height="36" fill="white"/>
<path d="M258.805 408.648L254.605 403.2H247.693V406.968H249.661V416.256H247.693V420C250.573 420 253.429 420 256.357 420V416.256H254.341V409.752L258.541 414.84H259.021L263.317 409.728V416.256H261.325V420C264.229 420 267.133 420 269.989 420V416.256H268.021V406.968H269.989V403.2H263.077L258.805 408.648ZM285.723 406.92V412.608C285.723 415.176 284.451 416.328 282.531 416.328C280.563 416.328 279.291 415.2 279.291 412.56V406.92H281.331V403.2C278.403 403.2 275.547 403.2 272.643 403.2V406.92H274.587V412.56C274.587 417.72 277.563 420.384 282.531 420.384C287.451 420.384 290.475 417.576 290.427 412.608V406.92H292.371V403.2C289.491 403.2 286.611 403.2 283.707 403.2V406.92H285.723ZM308.319 404.76C306.399 403.248 304.431 402.744 302.007 402.744C298.767 402.744 294.927 404.328 294.927 408.024C294.927 412.176 298.407 413.136 301.815 413.448C303.663 413.64 304.647 414.072 304.647 414.888C304.647 415.848 303.567 416.4 301.983 416.4C301.119 416.4 300.111 416.256 299.103 415.872L299.031 413.928H294.927V418.128C297.039 419.904 299.223 420.48 301.959 420.456C305.751 420.432 309.375 418.776 309.375 414.984C309.375 411.024 305.799 409.968 302.511 409.632C300.831 409.464 299.679 409.152 299.679 408.024C299.679 406.896 301.119 406.608 302.007 406.608C302.775 406.608 303.495 406.68 304.143 406.872L304.215 408.816H308.319C308.319 407.472 308.319 406.104 308.319 404.76ZM325.118 414.672C323.99 415.824 322.502 416.328 321.11 416.328C318.35 416.304 316.55 414.408 316.55 411.6C316.55 408.936 318.206 406.872 321.158 406.872C321.71 406.872 322.286 406.92 322.886 407.136L323.006 409.824H327.038V404.976C325.502 403.464 323.294 402.768 321.158 402.768C314.846 402.768 311.798 407.28 311.846 411.6C311.87 417.24 315.71 420.456 321.11 420.432C323.774 420.408 326.006 419.64 327.902 417.792L325.118 414.672ZM332.414 406.968V416.256H330.614V420H345.614V413.304H341.462L341.27 415.968H337.19V406.968H339.182V403.2C336.278 403.2 333.35 403.2 330.494 403.2V406.968H332.414ZM359.804 415.992H355.004V413.448H359.036V409.752H355.004V407.16H359.492L359.588 408.84H363.188V403.2C358.268 403.2 353.372 403.2 348.452 403.2V406.92H350.3V416.256H348.452V420C353.468 420 358.508 420 363.5 420V414.312H359.9L359.804 415.992Z" fill="#121212"/>
<defs>
<linearGradient id="paint0_linear_909_81" x1="215" y1="0" x2="215" y2="932" gradientUnits="userSpaceOnUse">
<stop stop-color="#0A061E"/>
<stop offset="1" stop-color="#3E2AB8"/>
</linearGradient>
</defs>
</svg>
